<svg xmlns="http://www.w3.org/2000/svg" viewBox="0 0 64 72" fill="none">
  <!-- Shield shape -->
  <path d="M32 2 L58 14 V40 C58 52 46 64 32 70 C18 64 6 52 6 40 V14 Z" fill="#164069"/>
  <path d="M32 6 L54 16 V40 C54 50 44 60 32 66 C20 60 10 50 10 40 V16 Z" fill="#1B4F82"/>
  <!-- Simplified harp body -->
  <path d="M28 20 C28 20 22 24 22 36 C22 44 26 50 32 52 C38 50 42 44 42 36 C42 24 36 20 36 20" stroke="#FFD700" stroke-width="2" fill="none"/>
  <!-- Harp pillar -->
  <line x1="28" y1="20" x2="28" y2="52" stroke="#FFD700" stroke-width="2"/>
  <!-- Harp strings -->
  <line x1="28" y1="26" x2="35" y2="24" stroke="#FFD700" stroke-width="1"/>
  <line x1="28" y1="30" x2="37" y2="27" stroke="#FFD700" stroke-width="1"/>
  <line x1="28" y1="34" x2="39" y2="31" stroke="#FFD700" stroke-width="1"/>
  <line x1="28" y1="38" x2="40" y2="35" stroke="#FFD700" stroke-width="1"/>
  <line x1="28" y1="42" x2="40" y2="39" stroke="#FFD700" stroke-width="1"/>
  <line x1="28" y1="46" x2="38" y2="44" stroke="#FFD700" stroke-width="1"/>
  <!-- Harp curve top -->
  <path d="M28 20 Q32 16 36 20" stroke="#FFD700" stroke-width="2" fill="none"/>
</svg>
